<?xml version="1.0" standalone="no"?>
<!DOCTYPE svg PUBLIC "-//W3C//DTD SVG 20010904//EN"
 "http://www.w3.org/TR/2001/REC-SVG-20010904/DTD/svg10.dtd">
<svg version="1.0" xmlns="http://www.w3.org/2000/svg"
 width="700.000000pt" height="700.000000pt" viewBox="0 0 700.000000 700.000000"
 preserveAspectRatio="xMidYMid meet">
<metadata>
Created by potrace 1.14, written by Peter Selinger 2001-2017
</metadata>
<g transform="translate(0.000000,700.000000) scale(0.100000,-0.100000)"
fill="#000000" stroke="none">
<path d="M3410 6095 c-601 -86 -1098 -399 -1431 -900 -123 -184 -241 -465
-283 -670 -24 -119 -24 -118 -32 -192 -8 -87 -9 -92 -15 -97 -2 -2 -39 -7 -81
-10 -66 -5 -160 -17 -233 -31 -171 -31 -385 -118 -556 -226 -84 -53 -88 -55
-188 -140 -277 -234 -467 -548 -550 -909 -29 -123 -35 -188 -35 -350 -1 -294
42 -483 164 -735 165 -340 423 -601 766 -773 152 -76 314 -127 514 -160 58 -9
4147 -9 4221 0 31 4 79 12 105 19 27 6 58 12 69 15 55 11 191 61 281 103 371
176 652 493 793 894 17 49 33 103 36 120 3 18 10 48 15 67 28 112 35 381 14
515 -15 95 -51 248 -64 274 -4 9 -20 48 -35 86 -73 186 -186 354 -346 514
-203 204 -501 362 -776 412 l-71 13 -2 151 c-1 155 -2 173 -14 265 -53 398
-231 791 -491 1079 -333 370 -759 596 -1255 666 -118 16 -407 16 -520 0z m584
-2031 c-1 -5 -16 -74 -32 -154 -17 -80 -33 -156 -35 -170 -3 -14 -12 -56 -21
-95 -9 -38 -18 -81 -20 -95 -2 -14 -13 -65 -25 -115 -11 -49 -22 -103 -25
-120 -3 -16 -20 -95 -37 -175 -17 -80 -33 -156 -34 -170 -2 -14 -8 -43 -14
-65 -10 -36 -64 -294 -75 -355 -3 -14 -30 -144 -61 -290 -31 -146 -58 -274
-61 -285 -36 -182 -59 -282 -66 -290 -6 -6 -101 -10 -248 -10 -209 0 -239 2
-235 15 5 19 113 524 121 565 3 17 9 46 14 65 5 19 11 49 13 65 3 17 10 53 17
80 12 52 13 57 30 140 5 28 15 73 21 100 6 28 13 64 15 80 3 17 10 48 16 70 5
22 12 51 15 65 2 14 31 153 64 310 33 157 61 294 63 305 3 11 11 52 20 90 8
39 17 82 20 95 3 14 7 36 10 49 3 14 15 68 26 120 11 53 24 113 29 134 5 20 6
37 2 37 -3 0 -1 4 6 8 16 10 488 7 487 -4z m-1320 -942 c-120 -121 -225 -226
-232 -234 -10 -13 23 -51 219 -248 l232 -232 -169 -169 -169 -169 -402 402
-403 403 402 402 403 403 169 -169 170 -170 -220 -219z m2173 -649 l-402 -403
-169 169 -169 169 232 232 c199 200 230 234 219 248 -7 8 -112 114 -233 234
l-219 219 169 169 170 169 402 -402 403 -402 -403 -402z"/>
</g>
</svg>
